<svg width="48" height="48" viewBox="0 0 48 48" fill="none" xmlns="http://www.w3.org/2000/svg">
<path d="M24 4C21.3736 4 18.7728 4.51732 16.3463 5.52241C13.9198 6.5275 11.715 8.00069 9.85786 9.85786C6.10714 13.6086 4 18.6957 4 24C4 29.3043 6.10714 34.3914 9.85786 38.1421C11.715 39.9993 13.9198 41.4725 16.3463 42.4776C18.7728 43.4827 21.3736 44 24 44C29.3043 44 34.3914 41.8929 38.1421 38.1421C41.8929 34.3914 44 29.3043 44 24C44 21.3736 43.4827 18.7728 42.4776 16.3463C41.4725 13.9198 39.9993 11.715 38.1421 9.85786C36.285 8.00069 34.0802 6.5275 31.6537 5.52241C29.2272 4.51732 26.6264 4 24 4ZM14.14 36.56C15 34.76 20.24 33 24 33C27.76 33 33 34.76 33.86 36.56C31.14 38.72 27.72 40 24 40C20.28 40 16.86 38.72 14.14 36.56ZM36.72 33.66C33.86 30.18 26.92 29 24 29C21.08 29 14.14 30.18 11.28 33.66C9.24 31 8 27.64 8 24C8 15.18 15.18 8 24 8C32.82 8 40 15.18 40 24C40 27.64 38.76 31 36.72 33.66ZM24 12C20.12 12 17 15.12 17 19C17 22.88 20.12 26 24 26C27.88 26 31 22.88 31 19C31 15.12 27.88 12 24 12ZM24 22C23.2044 22 22.4413 21.6839 21.8787 21.1213C21.3161 20.5587 21 19.7956 21 19C21 18.2044 21.3161 17.4413 21.8787 16.8787C22.4413 16.3161 23.2044 16 24 16C24.7956 16 25.5587 16.3161 26.1213 16.8787C26.6839 17.4413 27 18.2044 27 19C27 19.7956 26.6839 20.5587 26.1213 21.1213C25.5587 21.6839 24.7956 22 24 22Z" fill="black"/>
</svg>
