<svg width="48" height="48" viewBox="0 0 48 48" fill="none" xmlns="http://www.w3.org/2000/svg">
<path fill-rule="evenodd" clip-rule="evenodd" d="M11.1309 4.29771C10.5696 3.73662 9.90326 3.2916 9.16997 2.98805C8.43668 2.6845 7.65078 2.52836 6.85715 2.52856V4.32856C7.98242 4.32856 9.06161 4.77558 9.8573 5.57127C10.653 6.36696 11.1 7.44615 11.1 8.57142V18.8571C11.1 19.888 11.3636 20.9017 11.8659 21.8018C12.3682 22.702 13.0924 23.4587 13.9697 24C13.092 24.5408 12.3674 25.2974 11.8651 26.1977C11.3627 27.098 11.0993 28.1119 11.1 29.1428V39.4286C11.1 39.9857 10.9903 40.5375 10.777 41.0522C10.5638 41.567 10.2513 42.0347 9.8573 42.4287C9.46331 42.8227 8.99559 43.1352 8.48082 43.3485C7.96605 43.5617 7.41433 43.6714 6.85715 43.6714V45.4714C7.65071 45.4714 8.4365 45.3151 9.16965 45.0114C9.9028 44.7078 10.569 44.2626 11.1301 43.7015C11.6912 43.1404 12.1363 42.4742 12.44 41.7411C12.7437 41.0079 12.9 40.2221 12.9 39.4286V29.1428C12.9 28.0176 13.347 26.9384 14.1427 26.1427C14.9384 25.347 16.0176 24.9 17.1429 24.9V23.1C16.0176 23.1 14.9384 22.653 14.1427 21.8573C13.347 21.0616 12.9 19.9824 12.9 18.8571V8.57142C12.9 6.96856 12.264 5.43085 11.1309 4.29771ZM23.1429 18.8571C22.9155 18.8571 22.6975 18.9474 22.5368 19.1082C22.376 19.2689 22.2857 19.4869 22.2857 19.7143C22.2857 19.9416 22.376 20.1596 22.5368 20.3204C22.6975 20.4811 22.9155 20.5714 23.1429 20.5714H38.0811C38.3085 20.5714 38.5265 20.4811 38.6872 20.3204C38.848 20.1596 38.9383 19.9416 38.9383 19.7143C38.9383 19.4869 38.848 19.2689 38.6872 19.1082C38.5265 18.9474 38.3085 18.8571 38.0811 18.8571H23.1429ZM23.1429 27.4286C22.9155 27.4286 22.6975 27.5189 22.5368 27.6796C22.376 27.8404 22.2857 28.0584 22.2857 28.2857C22.2857 28.513 22.376 28.7311 22.5368 28.8918C22.6975 29.0525 22.9155 29.1428 23.1429 29.1428H34.164C34.3913 29.1428 34.6094 29.0525 34.7701 28.8918C34.9308 28.7311 35.0211 28.513 35.0211 28.2857C35.0211 28.0584 34.9308 27.8404 34.7701 27.6796C34.6094 27.5189 34.3913 27.4286 34.164 27.4286H23.1429ZM23.1429 23.1428H43.224C43.4513 23.1428 43.6693 23.2332 43.8301 23.3939C43.9908 23.5546 44.0812 23.7727 44.0812 24C44.0812 24.2273 43.9908 24.4453 43.8301 24.6061C43.6693 24.7668 43.4513 24.8571 43.224 24.8571H23.1429C22.9155 24.8571 22.6975 24.7668 22.5368 24.6061C22.376 24.4453 22.2857 24.2273 22.2857 24C22.2857 23.7727 22.376 23.5546 22.5368 23.3939C22.6975 23.2332 22.9155 23.1428 23.1429 23.1428Z" fill="currentColor"/>
</svg>
