<svg width="48" height="48" viewBox="0 0 48 48" fill="none" xmlns="http://www.w3.org/2000/svg">
<path d="M24 32C25.0609 32 26.0783 32.4214 26.8284 33.1716C27.5786 33.9217 28 34.9391 28 36C28 37.0609 27.5786 38.0783 26.8284 38.8284C26.0783 39.5786 25.0609 40 24 40C22.9391 40 21.9217 39.5786 21.1716 38.8284C20.4214 38.0783 20 37.0609 20 36C20 34.9391 20.4214 33.9217 21.1716 33.1716C21.9217 32.4214 22.9391 32 24 32ZM24 20C25.0609 20 26.0783 20.4214 26.8284 21.1716C27.5786 21.9217 28 22.9391 28 24C28 25.0609 27.5786 26.0783 26.8284 26.8284C26.0783 27.5786 25.0609 28 24 28C22.9391 28 21.9217 27.5786 21.1716 26.8284C20.4214 26.0783 20 25.0609 20 24C20 22.9391 20.4214 21.9217 21.1716 21.1716C21.9217 20.4214 22.9391 20 24 20ZM24 8C25.0609 8 26.0783 8.42143 26.8284 9.17157C27.5786 9.92172 28 10.9391 28 12C28 13.0609 27.5786 14.0783 26.8284 14.8284C26.0783 15.5786 25.0609 16 24 16C22.9391 16 21.9217 15.5786 21.1716 14.8284C20.4214 14.0783 20 13.0609 20 12C20 10.9391 20.4214 9.92172 21.1716 9.17157C21.9217 8.42143 22.9391 8 24 8Z" fill="currentColor"/>
</svg>
