<svg width="48" height="48" viewBox="0 0 48 48" fill="none" xmlns="http://www.w3.org/2000/svg">
<path d="M4 10.54L6.56 8L40 41.44L37.46 44L31.3 37.84C29 38.6 26.56 39 24 39C14 39 5.46 32.78 2 24C3.38 20.48 5.58 17.38 8.38 14.92L4 10.54ZM24 18C25.5913 18 27.1174 18.6321 28.2426 19.7574C29.3679 20.8826 30 22.4087 30 24C30 24.7 29.88 25.38 29.66 26L22 18.34C22.62 18.12 23.3 18 24 18ZM24 9C34 9 42.54 15.22 46 24C44.36 28.16 41.58 31.76 38 34.38L35.16 31.52C37.88 29.64 40.12 27.08 41.64 24C38.34 17.28 31.52 13 24 13C21.82 13 19.68 13.36 17.68 14L14.6 10.94C17.48 9.7 20.66 9 24 9ZM6.36 24C9.66 30.72 16.48 35 24 35C25.38 35 26.74 34.86 28 34.58L23.44 30C20.58 29.7 18.3 27.42 18 24.56L11.2 17.74C9.22 19.44 7.56 21.56 6.36 24Z" fill="currentColor"/>
</svg>
