<svg width="48" height="48" viewBox="0 0 48 48" fill="none" xmlns="http://www.w3.org/2000/svg">
<path d="M24 18C25.5913 18 27.1174 18.6321 28.2426 19.7574C29.3679 20.8826 30 22.4087 30 24C30 25.5913 29.3679 27.1174 28.2426 28.2426C27.1174 29.3679 25.5913 30 24 30C22.4087 30 20.8826 29.3679 19.7574 28.2426C18.6321 27.1174 18 25.5913 18 24C18 22.4087 18.6321 20.8826 19.7574 19.7574C20.8826 18.6321 22.4087 18 24 18ZM24 9C34 9 42.54 15.22 46 24C42.54 32.78 34 39 24 39C14 39 5.46 32.78 2 24C5.46 15.22 14 9 24 9ZM6.36 24C9.66 30.72 16.48 35 24 35C31.52 35 38.34 30.72 41.64 24C38.34 17.28 31.52 13 24 13C16.48 13 9.66 17.28 6.36 24Z" fill="currentColor"/>
</svg>
