<svg width="48" height="48" viewBox="0 0 48 48" fill="none" xmlns="http://www.w3.org/2000/svg">
<path fill-rule="evenodd" clip-rule="evenodd" d="M6.73041 16.0762H8.04877V13.1875C8.04877 12.7861 8.37397 12.4609 8.77534 12.4609H10.0673V10.7266C10.0673 10.3252 10.3925 10 10.7939 10H22.5888C22.9902 10 23.3154 10.3252 23.3154 10.7266V12.4609H39.2206C39.622 12.4609 39.9472 12.7861 39.9472 13.1875V16.0762H41.2744C41.6757 16.0762 42.0009 16.4014 42.0009 16.8027C42.0009 16.8555 41.9951 16.9082 41.9833 16.9551L39.4404 35.6465C39.3583 36.2559 39.0917 36.8213 38.6816 37.2314C38.2773 37.6357 37.7412 37.8877 37.1113 37.8877H10.3076C9.67475 37.8877 9.1269 37.6328 8.71674 37.2256C8.30366 36.8125 8.03998 36.2441 7.9726 35.626L6.00385 16.8789C5.96283 16.4805 6.25287 16.123 6.65131 16.082C6.68061 16.0791 6.70405 16.0791 6.73041 16.0762ZM24.7597 30.7334C24.7597 30.9414 24.6748 31.1318 24.5371 31.2695C24.4023 31.4043 24.2119 31.4893 24.0039 31.4922H23.998C23.79 31.4922 23.5996 31.4072 23.4619 31.2695C23.3271 31.1348 23.2421 30.9443 23.2392 30.7363V28.1875H20.6933C20.4853 28.1875 20.2949 28.1025 20.1572 27.9648C20.0224 27.8301 19.9374 27.6396 19.9345 27.4316V27.4258C19.9345 27.2178 20.0195 27.0273 20.1572 26.8896C20.2919 26.7549 20.4824 26.6699 20.6904 26.667H23.2392V24.1211C23.2392 23.9131 23.3242 23.7227 23.4619 23.585C23.5966 23.4502 23.7871 23.3652 23.9951 23.3623H24.0009C24.2089 23.3623 24.3994 23.4473 24.5371 23.585C24.6718 23.7197 24.7568 23.9102 24.7597 24.1182V26.667H27.3085C27.5166 26.667 27.707 26.752 27.8447 26.8896C27.9794 27.0244 28.0644 27.2148 28.0673 27.4229V27.4287C28.0673 27.6367 27.9824 27.8271 27.8447 27.9648C27.7099 28.0996 27.5195 28.1846 27.3115 28.1875H24.7597V30.7334ZM24.0039 19.375C26.1835 19.375 28.1582 20.2598 29.5878 21.6865C31.0175 23.1162 31.8994 25.0879 31.8994 27.2676C31.8994 29.4473 31.0146 31.4248 29.5878 32.8516C28.1582 34.2812 26.1865 35.1631 24.0039 35.1631C21.8242 35.1631 19.8496 34.2783 18.4199 32.8516C16.9902 31.4219 16.1083 29.4502 16.1083 27.2676C16.1083 25.0879 16.9931 23.1133 18.4199 21.6865C19.8496 20.2598 21.8242 19.375 24.0039 19.375ZM28.6035 22.6621C27.4257 21.4844 25.7968 20.7549 24.0009 20.7549C22.2021 20.7549 20.5761 21.4844 19.3984 22.6621C18.2206 23.8398 17.4912 25.4688 17.4912 27.2646C17.4912 29.0635 18.2206 30.6895 19.3984 31.8672C20.5761 33.0449 22.205 33.7744 24.0009 33.7744C25.7998 33.7744 27.4257 33.0449 28.6035 31.8672C29.7812 30.6895 30.5107 29.0605 30.5107 27.2646C30.5107 25.4688 29.7841 23.8398 28.6035 22.6621ZM8.77534 17.5322H7.53608L9.41987 35.4795C9.44916 35.7666 9.56635 36.0215 9.74213 36.2002C9.88862 36.3467 10.0849 36.4375 10.3076 36.4375H37.1113C37.331 36.4375 37.5156 36.3496 37.6591 36.2061C37.8408 36.0244 37.9609 35.7578 38.0019 35.459L40.4394 17.5352L8.77534 17.5322ZM9.5019 13.917V16.0732L38.4941 15.7656V13.917H22.5888C22.1874 13.917 21.8623 13.5918 21.8623 13.1904V11.4561H11.5205V13.1904C11.5205 13.5918 11.1953 13.917 10.7939 13.917H9.5019Z" fill="currentColor"/>
</svg>
