<svg width="48" height="48" viewBox="0 0 48 48" fill="none" xmlns="http://www.w3.org/2000/svg">
<path d="M6.7275 16.0762H8.04586V13.1875C8.04586 12.7861 8.37105 12.4609 8.77242 12.4609H10.0644V10.7266C10.0644 10.3252 10.3896 10 10.791 10H22.5859C22.9873 10 23.3125 10.3252 23.3125 10.7266V12.4609H39.2207C39.622 12.4609 39.9472 12.7861 39.9472 13.1875V16.0762H41.2744C41.6757 16.0762 42.0009 16.4014 42.0009 16.8027C42.0009 16.8555 41.9951 16.9082 41.9834 16.9551L39.4404 35.6494C39.3584 36.2588 39.0918 36.8242 38.6816 37.2344C38.2773 37.6387 37.7412 37.8906 37.1113 37.8906H10.3076C9.67476 37.8906 9.12691 37.6357 8.71676 37.2285C8.30367 36.8154 8.04 36.2471 7.97262 35.6289L6.00387 16.8789C5.96285 16.4805 6.25289 16.123 6.65133 16.082C6.67769 16.0791 6.70113 16.0791 6.7275 16.0762ZM24.0009 19.375C26.1806 19.375 28.1552 20.2598 29.5849 21.6865C31.0146 23.1162 31.8964 25.0879 31.8964 27.2705C31.8964 29.4502 31.0117 31.4248 29.5849 32.8545C28.1552 34.2842 26.1836 35.166 24.0009 35.166C21.8212 35.166 19.8466 34.2812 18.417 32.8516C16.9873 31.4219 16.1054 29.4502 16.1054 27.2676C16.1054 25.0879 16.9902 23.1133 18.417 21.6836C19.8466 20.2598 21.8212 19.375 24.0009 19.375ZM28.6035 22.665C27.4257 21.4873 25.7968 20.7578 24.0009 20.7578C22.2021 20.7578 20.5761 21.4873 19.3984 22.665C18.2207 23.8428 17.4912 25.4717 17.4912 27.2676C17.4912 29.0664 18.2207 30.6924 19.3984 31.8701C20.5761 33.0479 22.205 33.7773 24.0009 33.7773C25.7998 33.7773 27.4257 33.0479 28.6035 31.8701C29.7812 30.6924 30.5107 29.0635 30.5107 27.2676C30.5107 25.4717 29.7841 23.8428 28.6035 22.665ZM20.3476 28.2725C20.2773 28.1963 20.2216 28.1113 20.1836 28.0176C20.1455 27.9238 20.122 27.8242 20.1162 27.7217C20.1103 27.6104 20.1279 27.4961 20.166 27.3877C20.2041 27.2852 20.2627 27.1855 20.3418 27.0977L20.3798 27.0566C20.456 26.9834 20.5439 26.9248 20.6377 26.8867C20.7343 26.8457 20.8339 26.8223 20.9394 26.8164H20.9423C21.0537 26.8105 21.1679 26.8281 21.2763 26.8662C21.3789 26.9043 21.4785 26.9629 21.5634 27.0391L21.5664 27.042C21.8564 27.3203 22.167 27.5957 22.4775 27.874L22.8584 28.2168L26.3974 24.5137C26.4765 24.4316 26.5703 24.3701 26.6699 24.3262C26.7724 24.2822 26.8838 24.2559 26.9951 24.2529C27.1123 24.2529 27.2177 24.2676 27.3261 24.3115C27.4257 24.3496 27.5224 24.4082 27.6045 24.4873L27.622 24.502C27.7041 24.5811 27.7656 24.6748 27.8095 24.7715C27.8535 24.874 27.8798 24.9854 27.8828 25.0967V25.1113C27.8828 25.2197 27.8652 25.3281 27.8242 25.4277C27.7861 25.5273 27.7275 25.624 27.6484 25.7061L23.5322 30.0156C23.4531 30.0977 23.3623 30.165 23.2627 30.209C23.1601 30.2559 23.0488 30.2822 22.9375 30.2852H22.9345C22.8232 30.2881 22.7148 30.2734 22.6093 30.2354C22.5068 30.2002 22.4101 30.1416 22.3252 30.0684C21.7011 29.4912 20.9189 28.873 20.3476 28.2725ZM8.77242 17.5322H7.53316L9.41988 35.4824C9.44918 35.7695 9.56637 36.0244 9.74215 36.2031C9.88863 36.3496 10.0849 36.4404 10.3076 36.4404H37.1142C37.3339 36.4404 37.5185 36.3525 37.6621 36.209C37.8437 36.0273 37.9638 35.7607 38.0048 35.4619L40.4423 17.5352L8.77242 17.5322ZM9.49898 13.917V16.0732L38.4941 15.7656V13.917H22.5859C22.1845 13.917 21.8593 13.5918 21.8593 13.1904V11.4561H11.5175V13.1904C11.5175 13.5918 11.1923 13.917 10.791 13.917H9.49898Z" fill="currentColor"/>
</svg>
