<svg width="48" height="48" viewBox="0 0 48 48" fill="none" xmlns="http://www.w3.org/2000/svg">
<path d="M6.72748 16.0762H8.04584V13.1875C8.04584 12.7861 8.37104 12.4609 8.77241 12.4609H10.0644V10.7266C10.0644 10.3252 10.3896 10 10.791 10H22.5859C22.9873 10 23.3124 10.3252 23.3124 10.7266V12.4609H39.2206C39.622 12.4609 39.9472 12.7861 39.9472 13.1875V16.0762H41.2744C41.6757 16.0762 42.0009 16.4014 42.0009 16.8027C42.0009 16.8555 41.9951 16.9082 41.9833 16.9551L39.4404 35.6494C39.3583 36.2588 39.0917 36.8242 38.6816 37.2344C38.2773 37.6387 37.7412 37.8906 37.1113 37.8906H10.3076C9.67475 37.8906 9.1269 37.6357 8.71674 37.2285C8.30366 36.8154 8.03998 36.2471 7.9726 35.6289L6.00385 16.8789C5.96283 16.4805 6.25287 16.123 6.65131 16.082C6.67768 16.0791 6.70112 16.0791 6.72748 16.0762ZM8.77241 17.5322H7.53315L9.41694 35.4824C9.44623 35.7695 9.56342 36.0244 9.7392 36.2031C9.88569 36.3496 10.082 36.4404 10.3046 36.4404H37.1113C37.331 36.4404 37.5156 36.3525 37.6591 36.209C37.8408 36.0273 37.9609 35.7607 38.0019 35.4619L40.4394 17.5352H8.77241V17.5322ZM9.49897 13.917V16.0732L38.4941 15.7656V13.917H22.5859C22.1845 13.917 21.8593 13.5918 21.8593 13.1904V11.4561H11.5175V13.1904C11.5175 13.5918 11.1923 13.917 10.791 13.917H9.49897Z" fill="currentColor"/>
</svg>
