<svg width="48" height="48" viewBox="0 0 48 48" fill="none" xmlns="http://www.w3.org/2000/svg">
<path d="M6.72657 16.0762H8.04493V13.1875C8.04493 12.7861 8.37012 12.4609 8.77149 12.4609H10.0635V10.7266C10.0635 10.3252 10.3887 10 10.79 10H22.585C22.9863 10 23.3115 10.3252 23.3115 10.7266V12.4609H39.2197C39.6211 12.4609 39.9463 12.7861 39.9463 13.1875V16.0762H41.2734C41.6748 16.0762 42 16.4014 42 16.8027C42 16.8555 41.9941 16.9082 41.9824 16.9551L39.4395 35.6494C39.3574 36.2588 39.0908 36.8242 38.6807 37.2344C38.2764 37.6387 37.7402 37.8906 37.1104 37.8906H10.3066C9.67383 37.8906 9.12598 37.6357 8.71583 37.2285C8.30274 36.8154 8.03907 36.2471 7.97169 35.6289L6.00294 16.8789C5.96192 16.4805 6.25196 16.123 6.6504 16.082C6.67676 16.0791 6.7002 16.0791 6.72657 16.0762ZM24 19.0879C26.1797 19.0879 28.1543 19.9727 29.5811 21.3994C31.0107 22.8291 31.8926 24.8008 31.8926 26.9834C31.8926 29.1631 31.0078 31.1377 29.5811 32.5674C28.1514 33.9971 26.1797 34.8789 24 34.8789C21.8203 34.8789 19.8457 33.9941 18.416 32.5674C16.9863 31.1377 16.1045 29.166 16.1045 26.9834C16.1045 24.8037 16.9893 22.8291 18.416 21.3994C19.8457 19.9727 21.8203 19.0879 24 19.0879ZM28.6025 22.3809C27.4248 21.2031 25.7959 20.4736 24 20.4736C22.2012 20.4736 20.5752 21.2031 19.3975 22.3809C18.2197 23.5586 17.4902 25.1875 17.4902 26.9834C17.4902 28.7822 18.2197 30.4082 19.3975 31.5859C20.5752 32.7637 22.2041 33.4932 24 33.4932C25.7988 33.4932 27.4248 32.7637 28.6025 31.5859C29.7803 30.4082 30.5098 28.7793 30.5098 26.9834C30.5098 25.1875 29.7832 23.5586 28.6025 22.3809ZM27.7529 27.1094H25.374V23.3594H22.6934V27.1094H20.2471L23.9971 30.7598L27.7529 27.1094ZM8.77149 17.5322H7.53223L9.41602 35.4824C9.44532 35.7695 9.56251 36.0244 9.73829 36.2031C9.88477 36.3496 10.0811 36.4404 10.3037 36.4404H37.1104C37.3301 36.4404 37.5147 36.3525 37.6582 36.209C37.8399 36.0273 37.96 35.7607 38.001 35.4619L40.4385 17.5352L8.77149 17.5322ZM9.49805 13.917V16.0732L38.4932 15.7656V13.917H22.585C22.1836 13.917 21.8584 13.5918 21.8584 13.1904V11.4561H11.5166V13.1904C11.5166 13.5918 11.1914 13.917 10.79 13.917H9.49805Z" fill="currentColor"/>
</svg>
