<svg width="48" height="48" viewBox="0 0 48 48" fill="none" xmlns="http://www.w3.org/2000/svg">
<path d="M6.73041 16.0762H8.04877V13.1875C8.04877 12.7861 8.37397 12.4609 8.77534 12.4609H10.0673V10.7266C10.0673 10.3252 10.3925 10 10.7939 10H22.5888C22.9902 10 23.3154 10.3252 23.3154 10.7266V12.4609H39.2236C39.625 12.4609 39.9501 12.7861 39.9501 13.1875V16.0762H41.2773C41.6787 16.0762 42.0039 16.4014 42.0039 16.8027C42.0039 16.8555 41.998 16.9082 41.9863 16.9551L39.4433 35.6494C39.3613 36.2588 39.0947 36.8242 38.6845 37.2344C38.2802 37.6387 37.7441 37.8906 37.1142 37.8906H10.3076C9.67475 37.8906 9.1269 37.6357 8.71674 37.2285C8.30366 36.8154 8.03998 36.2471 7.9726 35.6289L6.00385 16.8789C5.96283 16.4805 6.25287 16.123 6.65131 16.082C6.68061 16.0791 6.70405 16.0791 6.73041 16.0762ZM24.0039 19.375C26.1835 19.375 28.1582 20.2598 29.5878 21.6865C31.0175 23.1162 31.8994 25.0879 31.8994 27.2676C31.8994 29.4473 31.0146 31.4248 29.5878 32.8516C28.1582 34.2812 26.1865 35.1631 24.0039 35.1631C21.8242 35.1631 19.8496 34.2783 18.4199 32.8516C16.9902 31.4219 16.1083 29.4502 16.1083 27.2676C16.1083 25.0879 16.9931 23.1133 18.4199 21.6865C19.8496 20.2598 21.8242 19.375 24.0039 19.375ZM28.6064 22.665C27.4287 21.4873 25.7998 20.7578 24.0039 20.7578C22.205 20.7578 20.579 21.4873 19.4013 22.665C18.2236 23.8428 17.4941 25.4717 17.4941 27.2676C17.4941 29.0664 18.2236 30.6924 19.4013 31.8701C20.579 33.0479 22.208 33.7773 24.0039 33.7773C25.8027 33.7773 27.4287 33.0479 28.6064 31.8701C29.7841 30.6924 30.5136 29.0635 30.5136 27.2676C30.5136 25.4717 29.7871 23.8428 28.6064 22.665ZM27.3115 26.667C27.5195 26.667 27.7099 26.752 27.8476 26.8896C27.9824 27.0244 28.0673 27.2148 28.0703 27.4229V27.4287C28.0703 27.6367 27.9853 27.8271 27.8476 27.9648C27.7128 28.0996 27.5224 28.1846 27.3144 28.1875C25.1083 28.1875 22.9023 28.1875 20.6962 28.1875C20.4882 28.1875 20.2978 28.1025 20.1601 27.9648C20.0253 27.8301 19.9404 27.6396 19.9374 27.4316V27.4258C19.9374 27.2178 20.0224 27.0273 20.1601 26.8896C20.2949 26.7549 20.4853 26.6699 20.6933 26.667C22.8994 26.667 25.1054 26.667 27.3115 26.667ZM8.77534 17.5322H7.53608L9.41987 35.4824C9.44916 35.7695 9.56635 36.0244 9.74213 36.2031C9.88862 36.3496 10.0849 36.4404 10.3076 36.4404H37.1142C37.3339 36.4404 37.5185 36.3525 37.6621 36.209C37.8437 36.0273 37.9638 35.7607 38.0048 35.4619L40.4423 17.5352L8.77534 17.5322ZM9.5019 13.917V16.0732L38.497 15.7656V13.917H22.5888C22.1874 13.917 21.8623 13.5918 21.8623 13.1904V11.4561H11.5205V13.1904C11.5205 13.5918 11.1953 13.917 10.7939 13.917H9.5019Z" fill="currentColor"/>
</svg>
