<svg width="48" height="48" viewBox="0 0 48 48" fill="none" xmlns="http://www.w3.org/2000/svg">
<path d="M6.72751 16.0762H8.04587V13.1875C8.04587 12.7861 8.37107 12.4609 8.77244 12.4609H10.0644V10.7266C10.0644 10.3252 10.3896 10 10.791 10H22.5859C22.9873 10 23.3125 10.3252 23.3125 10.7266V12.4609H39.2207C39.622 12.4609 39.9472 12.7861 39.9472 13.1875V16.0762H41.2744C41.6758 16.0762 42.001 16.4014 42.001 16.8027C42.001 16.8555 41.9951 16.9082 41.9834 16.9551L39.4404 35.6494C39.3584 36.2588 39.0918 36.8242 38.6816 37.2344C38.2773 37.6387 37.7412 37.8906 37.1113 37.8906H10.3076C9.67478 37.8906 9.12693 37.6357 8.71677 37.2285C8.30369 36.8154 8.04001 36.2471 7.97263 35.6289L6.00388 16.8789C5.96287 16.4805 6.2529 16.123 6.65134 16.082C6.67771 16.0791 6.70115 16.0791 6.72751 16.0762ZM21.1592 26.1865H21.7217V25.4102C21.7217 24.7686 21.9853 24.1826 22.4072 23.7607C22.8291 23.3389 23.415 23.0752 24.0566 23.0752C24.6982 23.0752 25.2842 23.3389 25.706 23.7607C26.1279 24.1826 26.3916 24.7686 26.3916 25.4102V26.1895H26.8398C26.9394 26.1895 27.0215 26.2715 27.0215 26.3711V30.2148C27.0215 30.3145 26.9394 30.3965 26.8398 30.3965H21.1533C21.0537 30.3965 20.9717 30.3145 20.9717 30.2148V26.3682C20.9775 26.2686 21.0566 26.1865 21.1592 26.1865ZM22.6299 26.1865H25.4863V25.3955C25.4863 25.0029 25.3252 24.6455 25.0674 24.3877C24.8095 24.1299 24.4521 23.9688 24.0595 23.9688C23.667 23.9688 23.3095 24.1299 23.0517 24.3877C22.7939 24.6455 22.6328 25.0029 22.6328 25.3955V26.1865H22.6299ZM24.001 19.1934C26.1806 19.1934 28.1553 20.0781 29.5849 21.5049C31.0146 22.9346 31.8965 24.9063 31.8965 27.0889C31.8965 29.2686 31.0117 31.2432 29.5849 32.6729C28.1553 34.1025 26.1836 34.9844 24.001 34.9844C21.8213 34.9844 19.8467 34.0996 18.417 32.6729C16.9873 31.2432 16.1054 29.2715 16.1054 27.0889C16.1054 24.9092 16.9902 22.9346 18.417 21.5049C19.8467 20.0781 21.8213 19.1934 24.001 19.1934ZM28.6035 22.4834C27.4258 21.3057 25.7969 20.5762 24.001 20.5762C22.2021 20.5762 20.5761 21.3057 19.3955 22.4834C18.2178 23.6611 17.4883 25.29 17.4883 27.0859C17.4883 28.8848 18.2178 30.5107 19.3955 31.6885C20.5732 32.8662 22.2021 33.5957 24.001 33.5957C25.7998 33.5957 27.4258 32.8662 28.6035 31.6885C29.7812 30.5107 30.5107 28.8818 30.5107 27.0859C30.5107 25.29 29.7842 23.6611 28.6035 22.4834ZM8.77244 17.5322H7.53318L9.4199 35.4824C9.44919 35.7695 9.56638 36.0244 9.74216 36.2031C9.88865 36.3496 10.0849 36.4404 10.3076 36.4404H37.1142C37.334 36.4404 37.5185 36.3525 37.6621 36.209C37.8437 36.0273 37.9638 35.7607 38.0049 35.4619L40.4424 17.5352L8.77244 17.5322ZM9.499 13.917V16.0732L38.4941 15.7656V13.917H22.5859C22.1845 13.917 21.8594 13.5918 21.8594 13.1904V11.4561H11.5176V13.1904C11.5176 13.5918 11.1924 13.917 10.791 13.917H9.499Z" fill="currentColor"/>
</svg>
