<svg width="48" height="48" viewBox="0 0 48 48" fill="none" xmlns="http://www.w3.org/2000/svg">
<path d="M24.001 19.1934C26.1806 19.1934 28.1553 20.0781 29.5849 21.5049C31.0146 22.9346 31.8965 24.9063 31.8965 27.0889C31.8965 29.2686 31.0117 31.2432 29.5849 32.6729C28.1553 34.1025 26.1836 34.9844 24.001 34.9844C21.8213 34.9844 19.8467 34.0996 18.4199 32.6729C16.9902 31.2432 16.1084 29.2715 16.1084 27.0889C16.1084 24.9092 16.9931 22.9346 18.4199 21.5049C19.8467 20.0781 21.8213 19.1934 24.001 19.1934ZM6.72751 16.0762H8.04587V13.1875C8.04587 12.7861 8.37107 12.4609 8.77244 12.4609H10.0644V10.7266C10.0644 10.3252 10.3896 10 10.791 10H22.5859C22.9873 10 23.3125 10.3252 23.3125 10.7266V12.4609H39.2207C39.622 12.4609 39.9472 12.7861 39.9472 13.1875V16.0762H41.2744C41.6758 16.0762 42.001 16.4014 42.001 16.8027C42.001 16.8555 41.9951 16.9082 41.9834 16.9551L39.4404 35.6494C39.3584 36.2588 39.0918 36.8242 38.6816 37.2344C38.2773 37.6387 37.7412 37.8906 37.1113 37.8906H10.3076C9.67478 37.8906 9.12693 37.6357 8.71677 37.2285C8.30369 36.8154 8.04001 36.2471 7.97263 35.6289L6.00388 16.8789C5.96287 16.4805 6.2529 16.123 6.65134 16.082C6.67771 16.0791 6.70115 16.0791 6.72751 16.0762ZM8.77244 17.5322H7.53318L9.4199 35.4824C9.44919 35.7695 9.56638 36.0244 9.74216 36.2031C9.88865 36.3496 10.0849 36.4404 10.3076 36.4404H37.1142C37.334 36.4404 37.5185 36.3525 37.6621 36.209C37.8437 36.0273 37.9638 35.7607 38.0049 35.4619L40.4424 17.5352L8.77244 17.5322ZM9.499 13.917V16.0732L38.4941 15.7656V13.917H22.5859C22.1845 13.917 21.8594 13.5918 21.8594 13.1904V11.4561H11.5176V13.1904C11.5176 13.5918 11.1924 13.917 10.791 13.917H9.499ZM26.3183 25.4951C26.4385 25.4775 26.5615 25.4658 26.6816 25.4688C27.1914 25.4717 27.6836 25.6533 28.0703 26.0723C28.1523 26.1602 28.2285 26.2568 28.2988 26.3682C28.542 26.7402 28.665 27.2383 28.6592 27.7275C28.6533 28.2051 28.5244 28.6826 28.2607 29.0342C28.0879 29.2627 27.8681 29.4502 27.6045 29.5967C27.3496 29.7402 27.0537 29.8486 26.7197 29.9248L26.6582 29.9336H21.1152L21.0801 29.9307C20.8779 29.9043 20.6933 29.8574 20.5263 29.7871C20.3535 29.7168 20.2011 29.623 20.0664 29.5117C19.9404 29.4062 19.8291 29.2861 19.7324 29.1543C19.4804 28.8057 19.3427 28.3779 19.3398 27.9531C19.3369 27.5254 19.4717 27.0977 19.7588 26.752C19.8525 26.6406 19.9609 26.5381 20.0869 26.4473C20.2334 26.3418 20.4004 26.251 20.5908 26.1777C20.7226 26.1279 20.8603 26.084 21.0068 26.0518C21.1738 25.3896 21.5283 24.8799 21.9853 24.5254C22.4131 24.1943 22.9287 24.001 23.459 23.9482C23.9863 23.8984 24.5312 23.9863 25.0176 24.2207C25.5537 24.4697 26.0166 24.8945 26.3183 25.4951ZM28.6035 22.4834C27.4258 21.3057 25.7969 20.5762 24.001 20.5762C22.2021 20.5762 20.5761 21.3057 19.3984 22.4834C18.2207 23.6611 17.4912 25.29 17.4912 27.0859C17.4912 28.8848 18.2207 30.5107 19.3984 31.6885C20.5761 32.8662 22.2051 33.5957 24.001 33.5957C25.7998 33.5957 27.4258 32.8662 28.6035 31.6885C29.7812 30.5107 30.5107 28.8818 30.5107 27.0859C30.5107 25.29 29.7842 23.6611 28.6035 22.4834Z" fill="currentColor"/>
</svg>
