<svg width="48" height="48" viewBox="0 0 48 48" fill="none" xmlns="http://www.w3.org/2000/svg">
<path d="M24.001 19.1934C26.1806 19.1934 28.1553 20.0781 29.5849 21.5049C31.0146 22.9346 31.8965 24.9063 31.8965 27.0889C31.8965 29.2686 31.0117 31.2432 29.5849 32.6729C28.1553 34.1025 26.1836 34.9844 24.001 34.9844C21.8213 34.9844 19.8467 34.0996 18.417 32.6729C16.9873 31.2432 16.1054 29.2715 16.1054 27.0889C16.1054 24.9092 16.9902 22.9346 18.417 21.5049C19.8467 20.0781 21.8213 19.1934 24.001 19.1934ZM6.72751 16.0762H8.04587V13.1875C8.04587 12.7861 8.37107 12.4609 8.77244 12.4609H10.0644V10.7266C10.0644 10.3252 10.3896 10 10.791 10H22.5859C22.9873 10 23.3125 10.3252 23.3125 10.7266V12.4609H39.2207C39.622 12.4609 39.9472 12.7861 39.9472 13.1875V16.0762H41.2744C41.6758 16.0762 42.001 16.4014 42.001 16.8027C42.001 16.8555 41.9951 16.9082 41.9834 16.958L39.4404 35.6523C39.3584 36.2617 39.0918 36.8271 38.6816 37.2373C38.2773 37.6416 37.7412 37.8936 37.1113 37.8936H10.3076C9.67478 37.8936 9.12693 37.6387 8.71677 37.2314C8.30369 36.8184 8.04001 36.25 7.97263 35.6318L6.00388 16.8818C5.96287 16.4834 6.2529 16.126 6.65134 16.085C6.67771 16.0791 6.70115 16.0791 6.72751 16.0762ZM8.77244 17.5322H7.53318L9.4199 35.4824C9.44919 35.7695 9.56638 36.0244 9.74216 36.2031C9.88865 36.3496 10.0849 36.4404 10.3076 36.4404H37.1142C37.334 36.4404 37.5185 36.3525 37.6621 36.209C37.8437 36.0273 37.9638 35.7607 38.0049 35.4619L40.4424 17.5352L8.77244 17.5322ZM9.499 13.917V16.0732L38.4941 15.7656V13.917H22.5859C22.1845 13.917 21.8594 13.5918 21.8594 13.1904V11.4561H11.5176V13.1904C11.5176 13.5918 11.1924 13.917 10.791 13.917H9.499ZM24.5166 23.1836L23.8486 26.5791L23.1719 25.5566C21.7129 26.1426 20.8926 27.1094 20.7724 28.5947C19.5742 26.5 20.3008 24.6191 21.8213 23.5205L21.1299 22.4805L24.5166 23.1836ZM23.4853 30.9941L24.1533 27.5986L24.8301 28.6211C26.289 28.0352 27.1094 27.0684 27.2295 25.583C28.4277 27.6777 27.7011 29.5586 26.1806 30.6572L26.872 31.6973L23.4853 30.9941ZM28.6035 22.4834C27.4258 21.3057 25.7969 20.5762 24.001 20.5762C22.2021 20.5762 20.5761 21.3057 19.3984 22.4834C18.2207 23.6611 17.4912 25.29 17.4912 27.0889C17.4912 28.8877 18.2207 30.5137 19.3984 31.6914C20.5761 32.8691 22.2051 33.5986 24.001 33.5986C25.7998 33.5986 27.4258 32.8691 28.6035 31.6914C29.7812 30.5137 30.5107 28.8848 30.5107 27.0889C30.5107 25.29 29.7842 23.6611 28.6035 22.4834Z" fill="currentColor"/>
</svg>
