<svg width="48" height="48" viewBox="0 0 48 48" fill="none" xmlns="http://www.w3.org/2000/svg">
<path d="M6.73041 16.0762H8.04877V13.1875C8.04877 12.7861 8.37397 12.4609 8.77534 12.4609H10.0673V10.7266C10.0673 10.3252 10.3925 10 10.7939 10H22.5888C22.9902 10 23.3154 10.3252 23.3154 10.7266V12.4609H39.2236C39.625 12.4609 39.9501 12.7861 39.9501 13.1875V16.0762H41.2773C41.6787 16.0762 42.0039 16.4014 42.0039 16.8027C42.0039 16.8555 41.998 16.9082 41.9863 16.9551L39.4433 35.6494C39.3613 36.2588 39.0947 36.8242 38.6845 37.2344C38.2802 37.6387 37.7441 37.8906 37.1142 37.8906H10.3076C9.67475 37.8906 9.1269 37.6357 8.71674 37.2285C8.30366 36.8154 8.03998 36.2471 7.9726 35.6289L6.00385 16.8789C5.96283 16.4805 6.25287 16.123 6.65131 16.082C6.68061 16.0791 6.70405 16.0791 6.73041 16.0762ZM24.0039 19.375C26.1835 19.375 28.1582 20.2598 29.5878 21.6865C31.0175 23.1162 31.8994 25.0879 31.8994 27.2676C31.8994 29.4473 31.0146 31.4219 29.5878 32.8516C28.1582 34.2812 26.1865 35.1631 24.0039 35.1631C21.8242 35.166 19.8496 34.2812 18.4199 32.8516C16.9902 31.4219 16.1083 29.4502 16.1083 27.2676C16.1083 25.085 16.9931 23.1133 18.4199 21.6865C19.8496 20.2598 21.8242 19.375 24.0039 19.375ZM28.6064 22.665C27.4287 21.4873 25.7998 20.7578 24.0039 20.7578C22.205 20.7578 20.579 21.4873 19.4013 22.665C18.2236 23.8428 17.4941 25.4717 17.4941 27.2676C17.4941 29.0664 18.2236 30.6924 19.4013 31.8701C20.579 33.0479 22.208 33.7773 24.0039 33.7773C25.8027 33.7773 27.4287 33.0479 28.6064 31.8701C29.7841 30.6924 30.5136 29.0635 30.5136 27.2676C30.5136 25.4717 29.7871 23.8428 28.6064 22.665ZM26.0488 23.7695C25.958 23.6875 25.8554 23.6406 25.7412 23.6465C25.6269 23.6465 25.5244 23.6904 25.4394 23.7812L24.7597 24.4873L26.6669 26.3301L27.3525 25.6123C27.4345 25.5303 27.4667 25.4189 27.4667 25.3047C27.4667 25.1904 27.4228 25.0791 27.3378 25.0029L26.0488 23.7695ZM23.081 30.0771C22.832 30.1592 22.5742 30.2383 22.3222 30.3203C22.0732 30.4023 21.8212 30.4873 21.5634 30.5693C20.9658 30.7627 20.6376 30.8711 20.5673 30.8916C20.497 30.9121 20.541 30.6338 20.6904 30.0566L21.165 28.2402L24.1503 25.1172L26.0576 26.9541L23.081 30.0771ZM8.77534 17.5322H7.53608L9.4228 35.4824C9.45209 35.7695 9.56928 36.0244 9.74506 36.2031C9.89155 36.3496 10.0878 36.4404 10.3105 36.4404H37.1171C37.3369 36.4404 37.5214 36.3525 37.665 36.209C37.8466 36.0273 37.9667 35.7607 38.0078 35.4619L40.4453 17.5352L8.77534 17.5322ZM9.5019 13.917V16.0732L38.497 15.7656V13.917H22.5888C22.1874 13.917 21.8623 13.5918 21.8623 13.1904V11.4561H11.5205V13.1904C11.5205 13.5918 11.1953 13.917 10.7939 13.917H9.5019Z" fill="currentColor"/>
</svg>
