<svg width="48" height="48" viewBox="0 0 48 48" fill="none" xmlns="http://www.w3.org/2000/svg">
<path d="M24.0039 19.1934C26.1835 19.1934 28.1581 20.0781 29.5849 21.5049C31.0146 22.9346 31.8964 24.9063 31.8964 27.0889C31.8964 29.2686 31.0117 31.2432 29.5849 32.6729C28.1552 34.1025 26.1835 34.9844 24.0039 34.9844C21.8242 34.9844 19.8496 34.0996 18.4199 32.6729C16.9902 31.2432 16.1083 29.2715 16.1083 27.0889C16.1083 24.9092 16.9931 22.9346 18.4199 21.5049C19.8496 20.0781 21.8242 19.1934 24.0039 19.1934ZM6.73041 16.0762H8.04877V13.1875C8.04877 12.7861 8.37397 12.4609 8.77534 12.4609H10.0673V10.7266C10.0673 10.3252 10.3925 10 10.7939 10H22.5888C22.9902 10 23.3154 10.3252 23.3154 10.7266V12.4609H39.2236C39.625 12.4609 39.9501 12.7861 39.9501 13.1875V16.0762H41.2773C41.6787 16.0762 42.0039 16.4014 42.0039 16.8027C42.0039 16.8555 41.998 16.9082 41.9863 16.9551L39.4433 35.6494C39.3613 36.2588 39.0947 36.8242 38.6845 37.2344C38.2802 37.6387 37.7441 37.8906 37.1142 37.8906H10.3076C9.67475 37.8906 9.1269 37.6357 8.71674 37.2285C8.30366 36.8154 8.03998 36.2471 7.9726 35.6289L6.00385 16.8789C5.96283 16.4805 6.25287 16.123 6.65131 16.082C6.68061 16.0791 6.70405 16.0791 6.73041 16.0762ZM8.77534 17.5322H7.53608L9.41987 35.4824C9.44916 35.7695 9.56635 36.0244 9.74213 36.2031C9.88862 36.3496 10.0849 36.4404 10.3076 36.4404H37.1142C37.3339 36.4404 37.5185 36.3525 37.6621 36.209C37.8437 36.0273 37.9638 35.7607 38.0048 35.4619L40.4423 17.5352L8.77534 17.5322ZM9.5019 13.917V16.0732L38.497 15.7656V13.917H22.5888C22.1874 13.917 21.8623 13.5918 21.8623 13.1904V11.4561H11.5205V13.1904C11.5205 13.5918 11.1953 13.917 10.7939 13.917H9.5019ZM22.832 31.0879V26.9512H22.0673C22.0673 25.9111 23.9804 26.585 25.3896 26.2305V31.085C28.0468 31.0879 20.1015 31.0879 22.832 31.0879ZM24.3759 23.0898C24.6923 23.0898 24.9384 23.1807 25.1201 23.3623C25.2988 23.541 25.3896 23.79 25.3896 24.1064C25.3896 24.4287 25.2373 24.7158 24.9267 24.9678C24.6162 25.2197 24.2529 25.3457 23.8427 25.3457C23.5322 25.3457 23.289 25.2578 23.0986 25.085C22.9111 24.9092 22.8173 24.6836 22.8173 24.3994C22.8173 24.0449 22.9697 23.7373 23.2773 23.4766C23.579 23.2188 23.9453 23.0898 24.3759 23.0898ZM28.6064 22.4834C27.4287 21.3057 25.7998 20.5762 24.0039 20.5762C22.205 20.5762 20.579 21.3057 19.4013 22.4834C18.2236 23.6611 17.4941 25.29 17.4941 27.0889C17.4941 28.8877 18.2236 30.5137 19.4013 31.6914C20.579 32.8691 22.208 33.5986 24.0039 33.5986C25.8027 33.5986 27.4287 32.8691 28.6064 31.6914C29.7841 30.5137 30.5136 28.8848 30.5136 27.0889C30.5136 25.29 29.7871 23.6611 28.6064 22.4834Z" fill="currentColor"/>
</svg>
