<svg width="48" height="48" viewBox="0 0 48 48" fill="none" xmlns="http://www.w3.org/2000/svg">
<path d="M6.72455 16.0762H8.04291V13.1875C8.04291 12.7861 8.36811 12.4609 8.76948 12.4609H10.0615V10.7266C10.0615 10.3252 10.3867 10 10.788 10H22.583C22.9843 10 23.3095 10.3252 23.3095 10.7266V12.4609H39.2177C39.6191 12.4609 39.9443 12.7861 39.9443 13.1875V16.0762H41.2714C41.6728 16.0762 41.998 16.4014 41.998 16.8027C41.998 16.8555 41.9921 16.9082 41.9833 16.9551L39.4404 35.6494C39.3583 36.2588 39.0917 36.8242 38.6816 37.2314C38.2773 37.6357 37.7412 37.8877 37.1113 37.8877H10.3046C9.67182 37.8877 9.12397 37.6328 8.71674 37.2256C8.30366 36.8154 8.03705 36.2441 7.9726 35.626L6.00385 16.876C5.96283 16.4775 6.25287 16.1201 6.65131 16.082C6.67475 16.0791 6.69819 16.0791 6.72455 16.0762ZM23.998 19.375C26.1777 19.375 28.1523 20.2598 29.582 21.6865C31.0117 23.1162 31.8935 25.0879 31.8935 27.2676C31.8935 29.4473 31.0087 31.4219 29.582 32.8516C28.1523 34.2812 26.1806 35.1631 23.998 35.1631C21.8183 35.166 19.8437 34.2812 18.4169 32.8516C16.9872 31.4219 16.1054 29.4502 16.1054 27.2676C16.1054 25.0879 16.9902 23.1133 18.4169 21.6865C19.8437 20.2598 21.8183 19.375 23.998 19.375ZM28.6035 22.665C27.4257 21.4873 25.7968 20.7578 23.998 20.7578C22.1992 20.7578 20.5732 21.4873 19.3955 22.665C18.2177 23.8428 17.4882 25.4717 17.4882 27.2676C17.4882 29.0664 18.2177 30.6924 19.3955 31.873C20.5732 33.0508 22.2021 33.7803 23.998 33.7803C25.7968 33.7803 27.4228 33.0508 28.6035 31.873C29.7812 30.6953 30.5107 29.0664 30.5107 27.2676C30.5078 25.4717 29.7812 23.8428 28.6035 22.665ZM20.2451 26.626H22.624V30.376H25.3046V26.626H27.7509L24.0009 22.9756L20.2451 26.626ZM8.76655 17.5322H7.53022L9.41694 35.4824C9.44623 35.7695 9.56049 36.0244 9.7392 36.2031C9.88569 36.3496 10.079 36.4404 10.3046 36.4404H37.1113C37.331 36.4404 37.5185 36.3525 37.6591 36.209C37.8408 36.0273 37.9609 35.7607 38.0019 35.4619L40.4394 17.5322H8.76655ZM9.49604 13.917V16.0732L38.4912 15.7656V13.917H22.583C22.1816 13.917 21.8564 13.5918 21.8564 13.1904V11.4561H11.5146V13.1904C11.5146 13.5918 11.1894 13.917 10.788 13.917H9.49604Z" fill="currentColor"/>
</svg>
