<svg width="48" height="48" viewBox="0 0 48 48" fill="none" xmlns="http://www.w3.org/2000/svg">
<path d="M6.73044 16.0762H8.0488V13.1875C8.0488 12.7861 8.374 12.4609 8.77537 12.4609H10.0674V10.7266C10.0674 10.3252 10.3926 10 10.7939 10H22.5888C22.9902 10 23.3154 10.3252 23.3154 10.7266V12.4609H39.2236C39.625 12.4609 39.9502 12.7861 39.9502 13.1875V16.0762H41.2773C41.6787 16.0762 42.0039 16.4014 42.0039 16.8027C42.0039 16.8555 41.998 16.9082 41.9863 16.9551L39.4433 35.6494C39.3613 36.2588 39.0947 36.8242 38.6846 37.2344C38.2803 37.6387 37.7441 37.8906 37.1142 37.8906H10.3076C9.67478 37.8906 9.12693 37.6357 8.71677 37.2285C8.30369 36.8154 8.04001 36.2471 7.97263 35.6289L6.00388 16.8789C5.96287 16.4805 6.2529 16.123 6.65134 16.082C6.68064 16.0791 6.70408 16.0791 6.73044 16.0762ZM22.5508 26.1367L25.0351 24.9092C25.0205 24.8242 25.0117 24.7363 25.0117 24.6484C25.0117 24.6484 25.0117 24.6484 25.0117 24.6455C25.0117 23.8574 25.6504 23.2188 26.4385 23.2188C27.2265 23.2188 27.8652 23.8574 27.8652 24.6455C27.8652 25.4336 27.2265 26.0723 26.4385 26.0723C26.1279 26.0723 25.8379 25.9727 25.6035 25.8027L22.9931 27.0918C22.9931 27.1152 22.9961 27.1416 22.9961 27.168C22.9961 27.2119 22.9931 27.2559 22.9902 27.2969L25.3926 28.4834C25.6474 28.2461 25.9902 28.0996 26.3652 28.0996C27.1533 28.0996 27.792 28.7383 27.792 29.5264C27.792 30.3145 27.1533 30.9531 26.3652 30.9531C25.5771 30.9531 24.9385 30.3145 24.9385 29.5264C24.9385 29.4971 24.9385 29.4678 24.9414 29.4355L22.5127 28.2373C22.2607 28.46 21.9297 28.5947 21.5693 28.5947C20.7812 28.5947 20.1426 27.9561 20.1426 27.168C20.1426 26.3799 20.7812 25.7412 21.5693 25.7412C21.9502 25.7412 22.2959 25.8936 22.5508 26.1367ZM24.0039 19.1934C26.1836 19.1934 28.1582 20.0781 29.5849 21.5049C31.0146 22.9346 31.8965 24.9063 31.8965 27.0889C31.8965 29.2686 31.0117 31.2432 29.5849 32.6729C28.1553 34.1025 26.1836 34.9844 24.0039 34.9844C21.8242 34.9844 19.8496 34.0996 18.4199 32.6729C16.9902 31.2432 16.1084 29.2715 16.1084 27.0889C16.1084 24.9092 16.9931 22.9346 18.4199 21.5049C19.8496 20.0781 21.8242 19.1934 24.0039 19.1934ZM28.6064 22.4834C27.4287 21.3057 25.7998 20.5762 24.0039 20.5762C22.2051 20.5762 20.5791 21.3057 19.4013 22.4834C18.2236 23.6611 17.4941 25.29 17.4941 27.0889C17.4941 28.8877 18.2236 30.5137 19.4013 31.6914C20.5791 32.8691 22.208 33.5986 24.0039 33.5986C25.8027 33.5986 27.4287 32.8691 28.6064 31.6914C29.7842 30.5137 30.5137 28.8848 30.5137 27.0889C30.5137 25.29 29.7871 23.6611 28.6064 22.4834ZM8.77537 17.5322H7.53611L9.4199 35.4824C9.44919 35.7695 9.56638 36.0244 9.74216 36.2031C9.88865 36.3496 10.0849 36.4404 10.3076 36.4404H37.1142C37.334 36.4404 37.5185 36.3525 37.6621 36.209C37.8437 36.0273 37.9638 35.7607 38.0049 35.4619L40.4424 17.5352L8.77537 17.5322ZM9.50193 13.917V16.0732L38.4971 15.7656V13.917H22.5888C22.1875 13.917 21.8623 13.5918 21.8623 13.1904V11.4561H11.5205V13.1904C11.5205 13.5918 11.1953 13.917 10.7939 13.917H9.50193Z" fill="currentColor"/>
</svg>
