<svg width="48" height="48" viewBox="0 0 48 48" fill="none" xmlns="http://www.w3.org/2000/svg">
<path d="M6.7254 16.0765H8.0426V13.1884C8.0426 12.7867 8.36838 12.461 8.77005 12.461H10.0618V10.7272C10.0618 10.3255 10.3875 10 10.7892 10H22.5842C22.9859 10 23.3114 10.3255 23.3114 10.7272V12.461H39.2185C39.6199 12.461 39.9454 12.7867 39.9454 13.1884V16.0765H41.2723C41.6739 16.0765 41.9994 16.402 41.9994 16.8037C41.9994 16.8564 41.9936 16.9077 41.983 16.9572L39.44 35.6523C39.3571 36.2619 39.0908 36.8274 38.6818 37.2361C38.2766 37.6409 37.7414 37.892 37.1115 37.892H10.3058C9.67211 37.892 9.12571 37.6386 8.71614 37.2287C8.30422 36.8171 8.03821 36.2473 7.97317 35.6279L6.00381 16.8778C5.96309 16.4793 6.25313 16.1231 6.65128 16.0824C6.67618 16.0797 6.70079 16.0786 6.72511 16.0783V16.0765H6.7254ZM23.2279 20.8505C24.8055 20.8505 26.237 21.4927 27.2735 22.5251C28.3101 23.5619 28.9484 24.9887 28.9484 26.571C28.9484 27.725 28.6042 28.8038 28.0165 29.702L30.4927 32.4009L28.7844 33.9621L26.3964 31.3347C25.4896 31.9391 24.3989 32.2916 23.2279 32.2916C21.6496 32.2916 20.2185 31.6497 19.1817 30.617C18.1451 29.5804 17.507 28.1534 17.507 26.571C17.507 24.9928 18.1489 23.5619 19.1817 22.5251C20.2185 21.4886 21.6455 20.8505 23.2279 20.8505ZM26.5188 23.2798C25.6768 22.4378 24.5117 21.9148 23.2279 21.9148C21.9435 21.9148 20.7786 22.4378 19.9366 23.2798C19.0946 24.1221 18.5714 25.2869 18.5714 26.571C18.5714 27.8551 19.0946 29.02 19.9366 29.862C20.7786 30.704 21.9435 31.2269 23.2279 31.2269C24.5117 31.2269 25.6768 30.704 26.5188 29.862C27.3608 29.02 27.8838 27.8548 27.8838 26.571C27.8838 25.2869 27.3608 24.1221 26.5188 23.2798ZM8.77005 17.5311H7.53137L9.41664 35.4809C9.44681 35.7677 9.56224 36.024 9.7392 36.2007C9.88568 36.3472 10.0805 36.438 10.3061 36.438H37.1124C37.3312 36.438 37.5178 36.3498 37.6599 36.208C37.8419 36.0261 37.9626 35.7586 38.0033 35.4595L40.442 17.5314H8.77005V17.5311ZM9.49749 13.9156V16.0712L38.4914 15.763V13.9153H22.5842C22.1826 13.9153 21.8568 13.5898 21.8568 13.1881V11.4546H11.5167V13.1884C11.5167 13.5901 11.1912 13.9156 10.7895 13.9156H9.49749Z" fill="currentColor"/>
</svg>
