<svg width="48" height="48" viewBox="0 0 48 48" fill="none" xmlns="http://www.w3.org/2000/svg">
<path d="M6.72748 16.0762H8.04584V13.1875C8.04584 12.7861 8.37104 12.4609 8.77241 12.4609H10.0644V10.7266C10.0644 10.3252 10.3896 10 10.791 10H22.5859C22.9873 10 23.3124 10.3252 23.3124 10.7266V12.4609H39.2206C39.622 12.4609 39.9472 12.7861 39.9472 13.1875V16.0762H41.2744C41.6757 16.0762 42.0009 16.4014 42.0009 16.8027C42.0009 16.8555 41.9951 16.9082 41.9833 16.9551L39.4404 35.6494C39.3583 36.2588 39.0917 36.8242 38.6816 37.2344C38.2773 37.6387 37.7412 37.8906 37.1113 37.8906H10.3076C9.67475 37.8906 9.1269 37.6357 8.71674 37.2285C8.30366 36.8154 8.03998 36.2471 7.9726 35.6289L6.00385 16.8789C5.96283 16.4805 6.25287 16.123 6.65131 16.082C6.67768 16.0791 6.70112 16.0791 6.72748 16.0762ZM24.0009 19.375C26.1806 19.375 28.1552 20.2598 29.5849 21.6865C31.0146 23.1162 31.8964 25.0879 31.8964 27.2705C31.8964 29.4502 31.0117 31.4248 29.5849 32.8545C28.1552 34.2842 26.1835 35.166 24.0009 35.166C21.8212 35.166 19.8466 34.2812 18.4169 32.8516C16.9873 31.4219 16.1054 29.4502 16.1054 27.2676C16.1054 25.0879 16.9902 23.1133 18.4169 21.6836C19.8466 20.2598 21.8212 19.375 24.0009 19.375ZM28.6035 22.665C27.4257 21.4873 25.7968 20.7578 24.0009 20.7578C22.2021 20.7578 20.5761 21.4873 19.3984 22.665C18.2206 23.8428 17.4912 25.4717 17.4912 27.2676C17.4912 29.0664 18.2206 30.6924 19.3984 31.8701C20.5761 33.0479 22.205 33.7773 24.0009 33.7773C25.7998 33.7773 27.4257 33.0479 28.6035 31.8701C29.7812 30.6924 30.5107 29.0635 30.5107 27.2676C30.5107 25.4717 29.7841 23.8428 28.6035 22.665ZM21.2353 25.5801C21.0888 25.4336 21.0126 25.2373 21.0126 25.0439C21.0126 24.8535 21.0859 24.6602 21.2324 24.5078L21.2353 24.5049C21.3818 24.3555 21.5781 24.2822 21.7714 24.2822C21.9619 24.2822 22.1552 24.3555 22.3076 24.502L24.1123 26.3037L25.9111 24.5049C26.0605 24.3555 26.2539 24.2822 26.4472 24.2822C26.6376 24.2822 26.831 24.3555 26.9833 24.502L26.9863 24.5049C27.1357 24.6514 27.2089 24.8477 27.2089 25.041C27.2089 25.2314 27.1357 25.4248 26.9892 25.5771L25.1845 27.3818L26.9833 29.1807C27.1328 29.3301 27.206 29.5234 27.206 29.7168C27.206 29.9072 27.1328 30.1006 26.9863 30.2529L26.9833 30.2559C26.8369 30.4053 26.6406 30.4785 26.4472 30.4785C26.2539 30.4785 26.0605 30.4053 25.9111 30.2588L24.1123 28.457L22.3134 30.2559C22.1669 30.4023 21.9706 30.4785 21.7773 30.4785C21.5839 30.4785 21.3906 30.4053 21.2412 30.2588L21.2382 30.2559C21.0888 30.1094 21.0156 29.9131 21.0156 29.7197C21.0156 29.5293 21.0888 29.3359 21.2353 29.1836L23.04 27.3789L21.2353 25.5801ZM8.77241 17.5322H7.53315L9.41694 35.4824C9.44623 35.7695 9.56342 36.0244 9.7392 36.2031C9.88569 36.3496 10.082 36.4404 10.3046 36.4404H37.1113C37.331 36.4404 37.5156 36.3525 37.6591 36.209C37.8408 36.0273 37.9609 35.7607 38.0019 35.4619L40.4394 17.5352L8.77241 17.5322ZM9.49897 13.917V16.0732L38.4941 15.7656V13.917H22.5859C22.1845 13.917 21.8593 13.5918 21.8593 13.1904V11.4561H11.5175V13.1904C11.5175 13.5918 11.1923 13.917 10.791 13.917H9.49897Z" fill="currentColor"/>
</svg>
