<svg width="48" height="48" viewBox="0 0 48 48" fill="none" xmlns="http://www.w3.org/2000/svg">
<path fill-rule="evenodd" clip-rule="evenodd" d="M6.72748 16.0762H8.04584V13.1875C8.04584 12.7861 8.37104 12.4609 8.77241 12.4609H10.0644V10.7266C10.0644 10.3252 10.3896 10 10.791 10H22.5859C22.9873 10 23.3124 10.3252 23.3124 10.7266V12.4609H39.2206C39.622 12.4609 39.9472 12.7861 39.9472 13.1875V16.0762H41.2744C41.6757 16.0762 42.0009 16.4014 42.0009 16.8027C42.0009 16.8555 41.9951 16.9082 41.9833 16.958L39.4404 35.6523C39.3583 36.2617 39.0917 36.8271 38.6816 37.2373C38.2773 37.6416 37.7412 37.8936 37.1113 37.8936H10.3076C9.67475 37.8936 9.1269 37.6387 8.71674 37.2314C8.30366 36.8184 8.03998 36.25 7.9726 35.6318L6.00385 16.8818C5.96283 16.4834 6.25287 16.126 6.65131 16.085C6.67768 16.0791 6.70112 16.0791 6.72748 16.0762ZM26.0458 17.5322L26.0869 31.2139L30.6806 28.7295L35.1923 31.1816L35.3476 17.5322H40.4423L38.0048 35.459C37.9638 35.7578 37.8437 36.0244 37.6621 36.2061C37.5214 36.3467 37.3339 36.4375 37.1142 36.4375H10.3076C10.082 36.4375 9.88569 36.3467 9.74213 36.2002C9.56635 36.0244 9.44916 35.7666 9.41987 35.4795L7.53315 17.5322H8.77241H26.0458ZM9.49897 13.917V16.0732L38.4941 15.7656V13.917H22.5859C22.1845 13.917 21.8593 13.5918 21.8593 13.1904V11.4561H11.5175V13.1904C11.5175 13.5918 11.1923 13.917 10.791 13.917H9.49897ZM31.3662 20.3389L30.6982 18.291C31.3486 18.291 31.9257 18.4756 32.4296 18.8418C32.9335 19.208 33.2968 19.709 33.5195 20.3389H31.3662ZM31.7763 21.6104L33.5224 20.3418C33.6191 20.6846 33.666 20.9922 33.666 21.2676C33.666 22.2432 33.2587 23.04 32.4414 23.6582L31.7763 21.6104ZM30.6982 22.3896L32.4414 23.6582C31.8906 24.0361 31.3105 24.2236 30.6982 24.2236C30.0888 24.2236 29.5087 24.0361 28.955 23.6582L30.6982 22.3896ZM29.6201 21.6104L28.955 23.6582C28.1406 23.0137 27.7304 22.2139 27.7304 21.2617C27.7304 20.9834 27.7802 20.6787 27.8769 20.3447L29.6201 21.6104ZM30.0331 20.3389H27.8798C28.0966 19.7119 28.4599 19.2139 28.9667 18.8418C29.4736 18.4727 30.0507 18.2881 30.6982 18.2881L30.0331 20.3389Z" fill="currentColor"/>
</svg>
