<svg width="48" height="48" viewBox="0 0 48 48" fill="none" xmlns="http://www.w3.org/2000/svg">
<path d="M24.0009 19.1934C26.1806 19.1934 28.1552 20.0781 29.5849 21.5049C31.0146 22.9346 31.8964 24.9063 31.8964 27.0889C31.8964 29.2686 31.0117 31.2432 29.5849 32.6729C28.1552 34.1025 26.1835 34.9844 24.0009 34.9844C21.8212 34.9844 19.8466 34.0996 18.4199 32.6729C16.9902 31.2432 16.1083 29.2715 16.1083 27.0889C16.1083 24.9092 16.9931 22.9346 18.4199 21.5049C19.8466 20.0781 21.8212 19.1934 24.0009 19.1934ZM24.0009 22.3516L25.372 25.7031L28.9814 25.9727L26.2187 28.3135L27.08 31.8291L24.0009 29.9219L20.9218 31.8262L21.7831 28.3105L19.0205 25.9697L22.6298 25.7002L24.0009 22.3516ZM6.72748 16.0762H8.04584V13.1875C8.04584 12.7861 8.37104 12.4609 8.77241 12.4609H10.0644V10.7266C10.0644 10.3252 10.3896 10 10.791 10H22.5859C22.9873 10 23.3124 10.3252 23.3124 10.7266V12.4609H39.2206C39.622 12.4609 39.9472 12.7861 39.9472 13.1875V16.0762H41.2744C41.6757 16.0762 42.0009 16.4014 42.0009 16.8027C42.0009 16.8555 41.9951 16.9082 41.9833 16.9551L39.4404 35.6494C39.3583 36.2588 39.0917 36.8242 38.6816 37.2344C38.2773 37.6387 37.7412 37.8906 37.1113 37.8906H10.3076C9.67475 37.8906 9.1269 37.6357 8.71674 37.2285C8.30366 36.8154 8.03998 36.2471 7.9726 35.6289L6.00385 16.8789C5.96283 16.4805 6.25287 16.123 6.65131 16.082C6.67768 16.0791 6.70112 16.0791 6.72748 16.0762ZM8.77241 17.5322H7.53315L9.41987 35.4824C9.44916 35.7695 9.56635 36.0244 9.74213 36.2031C9.88862 36.3496 10.0849 36.4404 10.3076 36.4404H37.1142C37.3339 36.4404 37.5185 36.3525 37.6621 36.209C37.8437 36.0273 37.9638 35.7607 38.0048 35.4619L40.4423 17.5352L8.77241 17.5322ZM9.49897 13.917V16.0732L38.4941 15.7656V13.917H22.5859C22.1845 13.917 21.8593 13.5918 21.8593 13.1904V11.4561H11.5175V13.1904C11.5175 13.5918 11.1923 13.917 10.791 13.917H9.49897ZM28.6035 22.4834C27.4257 21.3057 25.7968 20.5762 24.0009 20.5762C22.2021 20.5762 20.5761 21.3057 19.3984 22.4834C18.2206 23.6611 17.4912 25.29 17.4912 27.0859C17.4912 28.8848 18.2206 30.5107 19.3984 31.6885C20.5761 32.8662 22.205 33.5957 24.0009 33.5957C25.7998 33.5957 27.4257 32.8662 28.6035 31.6885C29.7812 30.5107 30.5107 28.8818 30.5107 27.0859C30.5107 25.29 29.7841 23.6611 28.6035 22.4834Z" fill="currentColor"/>
</svg>
