<svg width="48" height="48" viewBox="0 0 48 48" fill="none" xmlns="http://www.w3.org/2000/svg">
<path fill-rule="evenodd" clip-rule="evenodd" d="M44 24.4445C44 23.0289 43.8707 21.6645 43.6281 20.3556H24.4082V28.0911H35.3923C34.9184 30.5911 33.4807 32.7089 31.3197 34.1289V39.1467H37.9138C41.7732 35.6645 44 30.5378 44 24.4467V24.4445Z" fill="#4285F4"/>
<path fill-rule="evenodd" clip-rule="evenodd" d="M24.415 44.0001C29.9252 44.0001 34.5442 42.209 37.9206 39.1556L31.3243 34.1334C29.4966 35.3334 27.161 36.0445 24.415 36.0445C19.0998 36.0445 14.6009 32.5245 12.9955 27.7979H6.17686V32.9801C9.53287 39.5178 16.4376 44.0001 24.415 44.0001Z" fill="#34A853"/>
<path fill-rule="evenodd" clip-rule="evenodd" d="M12.9887 27.8044C12.5805 26.6044 12.3492 25.3222 12.3492 24.0044C12.3492 22.6867 12.5805 21.4044 12.9887 20.2044V15.0222H6.17007C4.78685 17.7222 4 20.7778 4 24.0044C4 27.2311 4.78912 30.2866 6.17007 32.9866L12.9887 27.8044Z" fill="#FBBC05"/>
<path fill-rule="evenodd" clip-rule="evenodd" d="M24.415 11.9555C27.4104 11.9555 30.102 12.9644 32.2154 14.9444L38.0703 9.21111C34.5306 5.98 29.9138 4 24.4127 4C16.4376 4 9.53287 8.48222 6.17686 15.0178L12.9955 20.2C14.6009 15.4733 19.0998 11.9555 24.415 11.9555Z" fill="#EA4335"/>
</svg>
