<svg width="48" height="48" viewBox="0 0 48 48" fill="none" xmlns="http://www.w3.org/2000/svg">
<path d="M7.8 24C7.8 20.58 10.58 17.8 14 17.8H22V14H14C11.3478 14 8.8043 15.0536 6.92893 16.9289C5.05357 18.8043 4 21.3478 4 24C4 26.6522 5.05357 29.1957 6.92893 31.0711C8.8043 32.9464 11.3478 34 14 34H22V30.2H14C10.58 30.2 7.8 27.42 7.8 24ZM16 26H32V22H16V26ZM34 14H26V17.8H34C37.42 17.8 40.2 20.58 40.2 24C40.2 27.42 37.42 30.2 34 30.2H26V34H34C36.6522 34 39.1957 32.9464 41.0711 31.0711C42.9464 29.1957 44 26.6522 44 24C44 21.3478 42.9464 18.8043 41.0711 16.9289C39.1957 15.0536 36.6522 14 34 14Z" fill="currentColor"/>
</svg>
