<svg width="48" height="48" viewBox="0 0 48 48" fill="none" xmlns="http://www.w3.org/2000/svg">
<path d="M34 14H26V17.8H34C37.42 17.8 40.2 20.58 40.2 24C40.2 26.86 38.24 29.26 35.58 30L38.5 32.88C41.76 31.22 44 27.9 44 24C44 21.3478 42.9464 18.8043 41.0711 16.9289C39.1957 15.0536 36.6522 14 34 14ZM32 22H27.62L31.62 26H32V22ZM4 8.54L10.22 14.76C6.58 16.24 4 19.82 4 24C4 26.6522 5.05357 29.1957 6.92893 31.0711C8.8043 32.9464 11.3478 34 14 34H22V30.2H14C10.58 30.2 7.8 27.42 7.8 24C7.8 20.82 10.22 18.2 13.32 17.86L17.46 22H16V26H21.46L26 30.54V34H29.46L37.48 42L40 39.48L6.54 6L4 8.54Z" fill="currentColor"/>
</svg>
