<svg width="48" height="48" viewBox="0 0 48 48" fill="none" xmlns="http://www.w3.org/2000/svg">
<path d="M24 34C21.78 34 20 32.2 20 30C20 27.78 21.78 26 24 26C25.0609 26 26.0783 26.4214 26.8284 27.1716C27.5786 27.9217 28 28.9391 28 30C28 31.0609 27.5786 32.0783 26.8284 32.8284C26.0783 33.5786 25.0609 34 24 34ZM36 40V20H12V40H36ZM36 16C37.0609 16 38.0783 16.4214 38.8284 17.1716C39.5786 17.9217 40 18.9391 40 20V40C40 41.0609 39.5786 42.0783 38.8284 42.8284C38.0783 43.5786 37.0609 44 36 44H12C9.78 44 8 42.2 8 40V20C8 17.78 9.78 16 12 16H14V12C14 9.34784 15.0536 6.8043 16.9289 4.92893C18.8043 3.05357 21.3478 2 24 2C25.3132 2 26.6136 2.25866 27.8268 2.7612C29.0401 3.26375 30.1425 4.00035 31.0711 4.92893C31.9997 5.85752 32.7362 6.95991 33.2388 8.17317C33.7413 9.38642 34 10.6868 34 12V16H36ZM24 6C22.4087 6 20.8826 6.63214 19.7574 7.75736C18.6321 8.88258 18 10.4087 18 12V16H30V12C30 10.4087 29.3679 8.88258 28.2426 7.75736C27.1174 6.63214 25.5913 6 24 6Z" fill="currentColor"/>
</svg>
