<svg width="48" height="48" viewBox="0 0 48 48" fill="none" xmlns="http://www.w3.org/2000/svg">
<path d="M32 34V28H18V20H32V14L42 24L32 34ZM28 4C29.0609 4 30.0783 4.42143 30.8284 5.17157C31.5786 5.92172 32 6.93913 32 8V12H28V8H10V40H28V36H32V40C32 41.0609 31.5786 42.0783 30.8284 42.8284C30.0783 43.5786 29.0609 44 28 44H10C8.93913 44 7.92172 43.5786 7.17157 42.8284C6.42143 42.0783 6 41.0609 6 40V8C6 6.93913 6.42143 5.92172 7.17157 5.17157C7.92172 4.42143 8.93913 4 10 4H28Z" fill="currentColor"/>
</svg>
