<svg width="48" height="48" viewBox="0 0 48 48" fill="none" xmlns="http://www.w3.org/2000/svg">
<path fill-rule="evenodd" clip-rule="evenodd" d="M12.6857 7.71423H7.71429V40.2857H12.6857V38.5714H9.42858V9.42852H12.6857V7.71423ZM19.7143 18.8571C19.487 18.8571 19.2689 18.9474 19.1082 19.1081C18.9475 19.2689 18.8572 19.4869 18.8572 19.7142C18.8572 19.9416 18.9475 20.1596 19.1082 20.3203C19.2689 20.4811 19.487 20.5714 19.7143 20.5714H34.6526C34.8799 20.5714 35.0979 20.4811 35.2587 20.3203C35.4194 20.1596 35.5097 19.9416 35.5097 19.7142C35.5097 19.4869 35.4194 19.2689 35.2587 19.1081C35.0979 18.9474 34.8799 18.8571 34.6526 18.8571H19.7143ZM19.7143 27.4285C19.487 27.4285 19.2689 27.5188 19.1082 27.6796C18.9475 27.8403 18.8572 28.0583 18.8572 28.2857C18.8572 28.513 18.9475 28.731 19.1082 28.8918C19.2689 29.0525 19.487 29.1428 19.7143 29.1428H30.7354C30.9628 29.1428 31.1808 29.0525 31.3415 28.8918C31.5023 28.731 31.5926 28.513 31.5926 28.2857C31.5926 28.0583 31.5023 27.8403 31.3415 27.6796C31.1808 27.5188 30.9628 27.4285 30.7354 27.4285H19.7143ZM19.7143 23.1428H39.7954C40.0228 23.1428 40.2408 23.2331 40.4015 23.3939C40.5623 23.5546 40.6526 23.7726 40.6526 23.9999C40.6526 24.2273 40.5623 24.4453 40.4015 24.606C40.2408 24.7668 40.0228 24.8571 39.7954 24.8571H19.7143C19.487 24.8571 19.2689 24.7668 19.1082 24.606C18.9475 24.4453 18.8572 24.2273 18.8572 23.9999C18.8572 23.7726 18.9475 23.5546 19.1082 23.3939C19.2689 23.2331 19.487 23.1428 19.7143 23.1428Z" fill="currentColor"/>
</svg>
