<svg width="48" height="48" viewBox="0 0 48 48" fill="none" xmlns="http://www.w3.org/2000/svg">
<path fill-rule="evenodd" clip-rule="evenodd" d="M31.5732 15.9453C32.2309 15.9453 32.8738 16.1403 33.4206 16.5057C33.9674 16.8711 34.3936 17.3904 34.6453 17.998C34.897 18.6056 34.9628 19.2742 34.8345 19.9192C34.7062 20.5642 34.3895 21.1567 33.9245 21.6218C33.4595 22.0868 32.867 22.4035 32.222 22.5318C31.5769 22.6601 30.9083 22.5943 30.3007 22.3426C29.6931 22.0909 29.1738 21.6647 28.8084 21.1179C28.4431 20.5711 28.248 19.9282 28.248 19.2705C28.248 18.8338 28.3341 18.4014 28.5012 17.998C28.6683 17.5946 28.9132 17.228 29.222 16.9192C29.5307 16.6105 29.8973 16.3655 30.3007 16.1984C30.7042 16.0313 31.1366 15.9453 31.5732 15.9453ZM39.5801 37.7393H8.41992C7.7784 37.7365 7.16416 37.4794 6.71191 37.0244C6.48675 36.8005 6.30797 36.5344 6.18581 36.2413C6.06365 35.9482 6.0005 35.6339 6 35.3164L6 13.4199C6.00011 12.7782 6.25514 12.1627 6.70898 11.709C7.16272 11.2551 7.77816 11.0001 8.41992 11H39.5801C40.2212 11.0017 40.8355 11.2577 41.2881 11.7119C41.7419 12.1657 41.997 12.7811 41.9971 13.4229V35.3164C41.997 35.6337 41.9343 35.9479 41.8126 36.241C41.691 36.5341 41.5127 36.8003 41.2881 37.0244C40.8358 37.4794 40.2216 37.7365 39.5801 37.7393ZM37.4268 34.9766L31.6641 25.7832C31.5448 25.5938 31.3794 25.4377 31.1835 25.3295C30.9875 25.2213 30.7673 25.1645 30.5435 25.1645C30.3196 25.1645 30.0994 25.2213 29.9034 25.3295C29.7075 25.4377 29.5421 25.5938 29.4229 25.7832L26.7012 30.1572L29.6631 34.9766H28.4473L20.3701 22.0859C19.626 21.0928 18.4336 21.1689 17.7686 22.0859L9.8584 34.9766H8.75977V13.7598H39.2285V34.9766H37.4268Z" fill="currentColor"/>
</svg>
