<svg width="48" height="48" viewBox="0 0 48 48" fill="none" xmlns="http://www.w3.org/2000/svg">
<path fill-rule="evenodd" clip-rule="evenodd" d="M30.3158 14.5263V18.5864H32.8421V14.5263C32.8421 9.29412 28.8834 5.05261 24 5.05261C19.1166 5.05261 15.1579 9.29412 15.1579 14.5263V18.5864H17.6842V14.5263C17.6842 10.791 20.5137 7.75938 24 7.75938C27.4863 7.75938 30.3158 10.791 30.3158 14.5263ZM30.3158 29.4135H32.8421V33.4737C32.8421 38.7058 28.8834 42.9473 24 42.9473C19.1166 42.9473 15.1579 38.7058 15.1579 33.4737V29.4135H17.6842V33.4737C17.6842 37.209 20.5137 40.2406 24 40.2406C27.4863 40.2406 30.3158 37.209 30.3158 33.4737V29.4135ZM22.7368 15.8797V32.1203H25.2632V15.8797H22.7368Z" fill="currentColor"/>
</svg>
