<svg width="48" height="48" viewBox="0 0 48 48" fill="none" xmlns="http://www.w3.org/2000/svg">
<path d="M36 32.16C34.48 32.16 33.12 32.76 32.08 33.7L17.82 25.4C17.92 24.94 18 24.48 18 24C18 23.52 17.92 23.06 17.82 22.6L31.92 14.38C33 15.38 34.42 16 36 16C39.32 16 42 13.32 42 10C42 6.68 39.32 4 36 4C32.68 4 30 6.68 30 10C30 10.48 30.08 10.94 30.18 11.4L16.08 19.62C15 18.62 13.58 18 12 18C8.68 18 6 20.68 6 24C6 27.32 8.68 30 12 30C13.58 30 15 29.38 16.08 28.38L30.32 36.68C30.22 37.1 30.16 37.54 30.16 38C30.16 41.22 32.78 43.82 36 43.82C39.22 43.82 41.84 41.22 41.84 38C41.84 34.78 39.22 32.16 36 32.16ZM36 8C37.1 8 38 8.9 38 10C38 11.1 37.1 12 36 12C34.9 12 34 11.1 34 10C34 8.9 34.9 8 36 8ZM12 26C10.9 26 10 25.1 10 24C10 22.9 10.9 22 12 22C13.1 22 14 22.9 14 24C14 25.1 13.1 26 12 26ZM36 40C34.9 40 34 39.1 34 38C34 36.9 34.9 36 36 36C37.1 36 38 36.9 38 38C38 39.1 37.1 40 36 40Z" fill="currentColor"/>
</svg>
