<svg width="48" height="48" viewBox="0 0 48 48" fill="none" xmlns="http://www.w3.org/2000/svg">
<path d="M34 24C34 28.84 30.56 32.88 26 33.8V42H22V33.8C17.44 32.88 14 28.84 14 24C14 19.16 17.44 15.12 22 14.2V6H26V14.2C30.56 15.12 34 19.16 34 24ZM24 18C22.4087 18 20.8826 18.6321 19.7574 19.7574C18.6321 20.8826 18 22.4087 18 24C18 25.5913 18.6321 27.1174 19.7574 28.2426C20.8826 29.3679 22.4087 30 24 30C25.5913 30 27.1174 29.3679 28.2426 28.2426C29.3679 27.1174 30 25.5913 30 24C30 22.4087 29.3679 20.8826 28.2426 19.7574C27.1174 18.6321 25.5913 18 24 18Z" fill="currentColor"/>
</svg>
