<svg width="48" height="48" viewBox="0 0 48 48" fill="none" xmlns="http://www.w3.org/2000/svg">
<path d="M16 26C12.28 26 9.18 28.56 8.28 32H4V36H8.28C9.18 39.44 12.28 42 16 42C19.72 42 22.82 39.44 23.72 36H44V32H23.72C22.82 28.56 19.72 26 16 26ZM16 38C13.8 38 12 36.2 12 34C12 31.8 13.8 30 16 30C18.2 30 20 31.8 20 34C20 36.2 18.2 38 16 38ZM39.72 12C38.82 8.56 35.72 6 32 6C28.28 6 25.18 8.56 24.28 12H4V16H24.28C25.18 19.44 28.28 22 32 22C35.72 22 38.82 19.44 39.72 16H44V12H39.72ZM32 18C29.8 18 28 16.2 28 14C28 11.8 29.8 10 32 10C34.2 10 36 11.8 36 14C36 16.2 34.2 18 32 18Z" fill="currentColor"/>
</svg>
