<svg width="48" height="48" viewBox="0 0 48 48" fill="none" xmlns="http://www.w3.org/2000/svg">
<path d="M16 24.28V4H12V24.28C8.56 25.18 6 28.28 6 32C6 35.72 8.56 38.82 12 39.72V44H16V39.72C19.44 38.82 22 35.72 22 32C22 28.28 19.44 25.18 16 24.28ZM14 28C16.2 28 18 29.8 18 32C18 34.2 16.2 36 14 36C11.8 36 10 34.2 10 32C10 29.8 11.8 28 14 28ZM36 4H32V8.28C28.56 9.18 26 12.28 26 16C26 19.72 28.56 22.82 32 23.72V44H36V23.72C39.44 22.82 42 19.72 42 16C42 12.28 39.44 9.18 36 8.28V4ZM34 12C36.2 12 38 13.8 38 16C38 18.2 36.2 20 34 20C31.8 20 30 18.2 30 16C30 13.8 31.8 12 34 12Z" fill="currentColor"/>
</svg>
